<?xml version="1.0" encoding="utf-8"?>
<!-- Generator: Adobe Illustrator 20.0.0, SVG Export Plug-In . SVG Version: 6.00 Build 0)  -->
<svg version="1.1" id="Layer_1" xmlns="http://www.w3.org/2000/svg" xmlns:xlink="http://www.w3.org/1999/xlink" x="0px" y="0px"
	 viewBox="0 0 158 36" style="enable-background:new 0 0 158 36;" xml:space="preserve">
<style type="text/css">
	.st0{fill:#7F8484;}
	.st1{fill:none;stroke:#7F8484;stroke-linecap:round;stroke-linejoin:round;stroke-miterlimit:10;}
</style>
<g>
	<path class="st0" d="M15.1,4.5l-4.2,10.9h-0.7L6,4.5v10.8H4V1.8h2.9l3.7,9.7l3.7-9.7h2.9v13.6h-2C15.1,15.4,15.1,4.5,15.1,4.5z"/>
	<path class="st0" d="M21.1,1.8h2V10c0,2.4,1.2,3.9,3.5,3.9s3.5-1.5,3.5-3.9V1.8h2V10c0,3.4-1.8,5.5-5.4,5.5s-5.4-2.2-5.4-5.5V1.8
		H21.1z"/>
	<path class="st0" d="M37.9,5v10.4h-2V1.8h2L45,12V1.8h2v13.6h-1.8L37.9,5z"/>
	<path class="st0" d="M51,1.8h4.5c4,0,6.7,2.9,6.7,6.7s-2.7,6.7-6.7,6.7H51V1.8z M55.7,13.6c3,0,4.7-2.2,4.7-5s-1.7-5-4.7-5h-2.7
		v9.9L55.7,13.6L55.7,13.6z"/>
	<path class="st0" d="M73.4,12.6H67l-1,2.9h-2.2L69,1.8h2.4l5.2,13.6h-2.2L73.4,12.6z M67.7,10.7h5.2l-2.7-7.2L67.7,10.7z"/>
	<path class="st0" d="M81.3,5v10.4h-2V1.8h2L88.3,12V1.8h2v13.6h-1.8L81.3,5z"/>
	<path class="st0" d="M94.4,1.8h2v13.6h-2V1.8z"/>
	<path class="st0" d="M108.5,12.6h-6.4l-1,2.9h-2.2l5.2-13.6h2.4l5.2,13.6h-2.2L108.5,12.6z M102.8,10.7h5.2l-2.7-7.2L102.8,10.7z"
		/>
	<path class="st0" d="M13.1,27.8H6v6H4V20.3h2V26h7.2v-5.7h2v13.6h-2.2V27.8z"/>
	<path class="st0" d="M25,20.1c3.9,0,6.6,3,6.6,7.1s-2.7,6.9-6.6,6.9s-6.6-3-6.6-7.1S21.1,20.1,25,20.1z M25,21.8
		c-2.9,0-4.5,2.2-4.5,5.2s1.7,5.2,4.5,5.2c2.7,0,4.5-2.2,4.5-5.2C29.5,24.1,27.9,21.8,25,21.8z"/>
	<path class="st0" d="M39.5,28.7h-2.4v5.2h-2V20.3h5.4c2.5,0,4.2,1.7,4.2,4.2s-1.5,3.7-3.2,4l3.4,5.4h-2.2L39.5,28.7z M40.3,22.1
		h-3.2v4.7h3.2c1.3,0,2.4-1,2.4-2.4C42.6,23,41.6,22.1,40.3,22.1z"/>
	<path class="st0" d="M46.7,20.3h2.2l4.2,11.4l4.2-11.4h2.2l-5.2,13.6h-2.4L46.7,20.3z"/>
	<path class="st0" d="M69.4,31H63l-1,2.9h-2.2L65,20.3h2.4l5.2,13.6h-2.2L69.4,31z M63.5,29.2h5.2L66.2,22L63.5,29.2z"/>
	<path class="st0" d="M77.1,22.1h-4v-1.8H83v1.8h-4v11.8h-2V22.1H77.1z"/>
	<path class="st0" d="M95.4,27.8h-7.2v6h-2V20.3h2V26h7.2v-5.7h2v13.6h-2V27.8z"/>
</g>
<line class="st1" x1="115.7" y1="29.5" x2="126.3" y2="6.3"/>
<line class="st1" x1="122.8" y1="29.5" x2="133.2" y2="6.3"/>
</svg>
