<?xml version="1.0" encoding="utf-8"?>
<!-- Generator: Adobe Illustrator 20.0.0, SVG Export Plug-In . SVG Version: 6.00 Build 0)  -->
<svg version="1.1" id="Layer_1" xmlns="http://www.w3.org/2000/svg" xmlns:xlink="http://www.w3.org/1999/xlink" x="0px" y="0px"
	 viewBox="0 0 130.3 11.5" style="enable-background:new 0 0 130.3 11.5;" xml:space="preserve">
<style type="text/css">
	.st0{fill:#7F8484;}
</style>
<path class="st0" d="M10.6,3.4L8.1,9.9H7.7L5.2,3.4v6.4H4v-8h1.7l2.2,5.8l2.2-5.8h1.7v8.1h-1.2C10.6,9.9,10.6,3.4,10.6,3.4z"/>
<path class="st0" d="M14.2,1.8h1.2v4.9c0,1.4,0.7,2.3,2.1,2.3s2.1-0.9,2.1-2.3V1.8h1.2v4.9c0,2-1.1,3.3-3.2,3.3s-3.2-1.3-3.2-3.3
	V1.8H14.2z"/>
<path class="st0" d="M24.2,3.7v6.2H23V1.8h1.2l4.2,6.1V1.8h1.2v8.1h-1.1L24.2,3.7z"/>
<path class="st0" d="M32,1.8h2.7c2.4,0,4,1.7,4,4s-1.6,4-4,4H32V1.8z M34.8,8.8c1.8,0,2.8-1.3,2.8-3s-1-3-2.8-3h-1.6v5.9L34.8,8.8
	L34.8,8.8z"/>
<path class="st0" d="M45.3,8.2h-3.8l-0.6,1.7h-1.3l3.1-8.1h1.4l3.1,8.1h-1.3L45.3,8.2z M41.9,7.1H45l-1.6-4.3L41.9,7.1z"/>
<path class="st0" d="M50,3.7v6.2h-1.2V1.8H50l4.2,6.1V1.8h1.2v8.1h-1.1L50,3.7z"/>
<path class="st0" d="M57.8,1.8H59v8.1h-1.2V1.8z"/>
<path class="st0" d="M66.2,8.2h-3.8l-0.6,1.7h-1.3l3.1-8.1H65l3.1,8.1h-1.3L66.2,8.2z M62.8,7.1h3.1l-1.6-4.3L62.8,7.1z"/>
<path class="st0" d="M78.7,6.3h-4.2v3.6h-1.2V1.8h1.2v3.4h4.3V1.8H80v8.1h-1.3V6.3z"/>
<path class="st0" d="M85.8,1.7c2.3,0,3.9,1.8,3.9,4.2S88.1,10,85.8,10c-2.3,0-3.9-1.8-3.9-4.2S83.5,1.7,85.8,1.7z M85.8,2.7
	c-1.7,0-2.7,1.3-2.7,3.1s1,3.1,2.7,3.1c1.6,0,2.7-1.3,2.7-3.1C88.5,4.1,87.5,2.7,85.8,2.7z"/>
<path class="st0" d="M94.4,6.8H93v3.1h-1.2V1.8H95c1.5,0,2.5,1,2.5,2.5s-0.9,2.2-1.9,2.4l2,3.2h-1.3L94.4,6.8z M94.9,2.9H93v2.8h1.9
	c0.8,0,1.4-0.6,1.4-1.4C96.3,3.4,95.7,2.9,94.9,2.9z"/>
<path class="st0" d="M98.7,1.8h1.3l2.5,6.8l2.5-6.8h1.3l-3.1,8.1h-1.4L98.7,1.8z"/>
<path class="st0" d="M112.2,8.2h-3.8l-0.6,1.7h-1.3l3.1-8.1h1.4l3.1,8.1h-1.3L112.2,8.2z M108.7,7.1h3.1l-1.5-4.3L108.7,7.1z"/>
<path class="st0" d="M116.8,2.9h-2.4V1.8h5.9v1.1h-2.4v7h-1.2v-7H116.8z"/>
<path class="st0" d="M127.7,6.3h-4.3v3.6h-1.2V1.8h1.2v3.4h4.3V1.8h1.2v8.1h-1.2V6.3z"/>
</svg>
