<?xml version="1.0" encoding="utf-8"?>
<!-- Generator: Adobe Illustrator 20.0.0, SVG Export Plug-In . SVG Version: 6.00 Build 0)  -->
<svg version="1.1" id="Layer_1" xmlns="http://www.w3.org/2000/svg" xmlns:xlink="http://www.w3.org/1999/xlink" x="0px" y="0px"
	 viewBox="0 0 93.5 26.7" style="enable-background:new 0 0 93.5 26.7;" xml:space="preserve">
<style type="text/css">
	.st0{fill:#7F8484;stroke:#7F8484;stroke-width:0.25;stroke-miterlimit:10;}
	.st1{fill:none;stroke:#7F8484;stroke-linecap:round;stroke-linejoin:round;stroke-miterlimit:10;}
</style>
<g>
	<path class="st0" d="M11.3,3.6l-2.8,7.2H8.1L5.3,3.6v7.1H4V1.8h1.9l2.4,6.4l2.4-6.4h1.9v8.9h-1.3C11.3,10.7,11.3,3.6,11.3,3.6z"/>
	<path class="st0" d="M15.3,1.8h1.3v5.4c0,1.5,0.8,2.5,2.3,2.5s2.3-1,2.3-2.5V1.8h1.3v5.4c0,2.2-1.2,3.6-3.5,3.6s-3.5-1.4-3.5-3.6
		V1.8H15.3z"/>
	<path class="st0" d="M26.3,3.9v6.8H25V1.8h1.3l4.6,6.7V1.8h1.3v8.9H31L26.3,3.9z"/>
	<path class="st0" d="M34.9,1.8h3c2.6,0,4.4,1.9,4.4,4.4s-1.8,4.4-4.4,4.4h-3V1.8z M38,9.5c2,0,3.1-1.4,3.1-3.3S40,2.9,38,2.9h-1.8
		v6.5H38V9.5z"/>
	<path class="st0" d="M49.6,8.9h-4.2l-0.7,1.9h-1.4l3.4-8.9h1.5l3.4,8.9h-1.4L49.6,8.9z M45.8,7.7h3.4l-1.8-4.7L45.8,7.7z"/>
	<path class="st0" d="M54.8,3.9v6.8h-1.3V1.8h1.3l4.6,6.7V1.8h1.3v8.9h-1.2L54.8,3.9z"/>
	<path class="st0" d="M63.4,1.8h1.3v8.9h-1.3V1.8z"/>
	<path class="st0" d="M72.7,8.9h-4.2l-0.7,1.9h-1.4l3.4-8.9h1.5l3.4,8.9h-1.4L72.7,8.9z M68.9,7.7h3.4l-1.8-4.7L68.9,7.7z"/>
	<path class="st0" d="M10,18.9H5.3v4H4v-8.9h1.3v3.8h4.7v-3.8h1.3v8.9H10V18.9z"/>
	<path class="st0" d="M17.8,13.8c2.5,0,4.3,2,4.3,4.6S20.3,23,17.8,23s-4.3-2-4.3-4.6S15.3,13.8,17.8,13.8z M17.8,14.9
		c-1.9,0-3,1.4-3,3.4s1.1,3.4,3,3.4c1.8,0,3-1.4,3-3.4C20.8,16.5,19.7,14.9,17.8,14.9z"/>
	<path class="st0" d="M27.3,19.5h-1.5v3.4h-1.3v-8.9H28c1.7,0,2.8,1.1,2.8,2.8c0,1.7-1,2.4-2.1,2.6l2.2,3.5h-1.4L27.3,19.5z
		 M27.8,15.2h-2.1v3.1h2.1c0.9,0,1.5-0.7,1.5-1.5C29.4,15.7,28.7,15.2,27.8,15.2z"/>
	<path class="st0" d="M32,13.9h1.4l2.8,7.5l2.8-7.5h1.4L37,22.9h-1.5L32,13.9z"/>
	<path class="st0" d="M46.9,21h-4.2l-0.7,1.9h-1.4l3.4-8.9h1.5l3.4,8.9h-1.4L46.9,21z M43.1,19.8h3.4L44.8,15L43.1,19.8z"/>
	<path class="st0" d="M52,15.2h-2.6v-1.2h6.5v1.2h-2.6v7.7h-1.3v-7.7H52z"/>
	<path class="st0" d="M64.1,18.9h-4.7v4H58v-8.9h1.3v3.8h4.7v-3.8h1.3v8.9h-1.3V18.9z"/>
</g>
<line class="st1" x1="77.4" y1="20" x2="84.4" y2="4.8"/>
<line class="st1" x1="82.1" y1="20" x2="88.9" y2="4.8"/>
</svg>
