<?xml version="1.0" encoding="utf-8"?>
<!-- Generator: Adobe Illustrator 20.0.0, SVG Export Plug-In . SVG Version: 6.00 Build 0)  -->
<svg version="1.1" id="Layer_1" xmlns="http://www.w3.org/2000/svg" xmlns:xlink="http://www.w3.org/1999/xlink" x="0px" y="0px"
	 viewBox="0 0 93.5 14" style="enable-background:new 0 0 93.5 14;" xml:space="preserve">
<style type="text/css">
	.st0{enable-background:new    ;}
	.st1{fill:#34495E;}
</style>
<g class="st0">
	<path class="st1" d="M2.4,3.3l2.8,7l2.8-7h1.5v8.5H8.4V8.5l0.1-3.6l-2.8,6.9H4.8L2,4.9l0.1,3.6v3.3H1V3.3H2.4z"/>
	<path class="st1" d="M15.2,11.2c-0.4,0.5-1,0.7-1.9,0.7c-0.7,0-1.2-0.2-1.5-0.6s-0.5-1-0.5-1.7V5.5h1.1v4.1c0,1,0.4,1.4,1.2,1.4
		c0.8,0,1.4-0.3,1.7-0.9V5.5h1.1v6.3h-1L15.2,11.2z"/>
	<path class="st1" d="M17.6,8.6c0-1,0.2-1.8,0.7-2.3s1.1-0.9,1.8-0.9c0.7,0,1.3,0.3,1.8,0.8V2.8H23v9h-1l-0.1-0.7
		c-0.4,0.5-1,0.8-1.8,0.8c-0.7,0-1.3-0.3-1.8-0.9S17.6,9.7,17.6,8.6L17.6,8.6z M18.7,8.7c0,0.7,0.1,1.3,0.4,1.7s0.7,0.6,1.2,0.6
		c0.7,0,1.2-0.3,1.5-0.9V7.2c-0.3-0.6-0.8-0.9-1.5-0.9c-0.5,0-0.9,0.2-1.2,0.6S18.7,7.9,18.7,8.7z"/>
	<path class="st1" d="M28.6,11.8c-0.1-0.1-0.1-0.3-0.2-0.7c-0.5,0.5-1.1,0.8-1.8,0.8c-0.6,0-1.1-0.2-1.5-0.5s-0.6-0.8-0.6-1.3
		c0-0.7,0.3-1.2,0.8-1.5S26.5,8,27.4,8h1.1V7.5c0-0.4-0.1-0.7-0.3-0.9s-0.6-0.3-1-0.3c-0.4,0-0.7,0.1-1,0.3S25.7,7,25.7,7.3h-1.1
		c0-0.3,0.1-0.6,0.3-0.9s0.5-0.5,0.9-0.7s0.8-0.3,1.3-0.3c0.7,0,1.3,0.2,1.7,0.5s0.6,0.9,0.6,1.5v2.9c0,0.6,0.1,1,0.2,1.4v0.1H28.6z
		 M26.8,11c0.3,0,0.7-0.1,1-0.3s0.5-0.4,0.7-0.7V8.8h-0.8c-1.3,0-2,0.4-2,1.2c0,0.3,0.1,0.6,0.3,0.8S26.4,11,26.8,11z"/>
	<path class="st1" d="M32.2,5.5l0,0.8c0.5-0.6,1.1-0.9,1.9-0.9c1.3,0,2,0.8,2,2.3v4.2h-1.1V7.6c0-0.5-0.1-0.8-0.3-1s-0.5-0.3-1-0.3
		c-0.4,0-0.7,0.1-0.9,0.3S32.4,7,32.3,7.3v4.5h-1.1V5.5H32.2z"/>
	<path class="st1" d="M37.8,3.8c0-0.2,0.1-0.3,0.2-0.4s0.3-0.2,0.5-0.2s0.4,0.1,0.5,0.2s0.2,0.3,0.2,0.4S39.1,4.1,39,4.3
		s-0.3,0.2-0.5,0.2S38.1,4.4,38,4.3S37.8,4,37.8,3.8z M39,11.8h-1.1V5.5H39V11.8z"/>
	<path class="st1" d="M44.7,11.8c-0.1-0.1-0.1-0.3-0.2-0.7C44,11.7,43.4,12,42.7,12c-0.6,0-1.1-0.2-1.5-0.5s-0.6-0.8-0.6-1.3
		c0-0.7,0.3-1.2,0.8-1.5S42.5,8,43.4,8h1.1V7.5c0-0.4-0.1-0.7-0.3-0.9s-0.6-0.3-1-0.3c-0.4,0-0.7,0.1-1,0.3S41.8,7,41.8,7.3h-1.1
		c0-0.3,0.1-0.6,0.3-0.9s0.5-0.5,0.9-0.7s0.8-0.3,1.3-0.3c0.7,0,1.3,0.2,1.7,0.5s0.6,0.9,0.6,1.5v2.9c0,0.6,0.1,1,0.2,1.4v0.1H44.7z
		 M42.9,11c0.3,0,0.7-0.1,1-0.3s0.5-0.4,0.7-0.7V8.8h-0.8c-1.3,0-2,0.4-2,1.2c0,0.3,0.1,0.6,0.3,0.8S42.5,11,42.9,11z"/>
	<path class="st1" d="M57,11.8h-1.1V7.9h-4.3v3.9h-1.1V3.3h1.1V7h4.3V3.3H57V11.8z"/>
	<path class="st1" d="M58.5,8.6c0-0.6,0.1-1.2,0.4-1.7s0.6-0.9,1-1.1s0.9-0.4,1.5-0.4c0.9,0,1.6,0.3,2.1,0.9s0.8,1.4,0.8,2.4v0.1
		c0,0.6-0.1,1.2-0.4,1.7s-0.6,0.9-1,1.1S62,12,61.4,12c-0.9,0-1.6-0.3-2.1-0.9S58.5,9.7,58.5,8.6L58.5,8.6z M59.6,8.7
		c0,0.7,0.2,1.3,0.5,1.7s0.8,0.6,1.3,0.6c0.6,0,1-0.2,1.3-0.6s0.5-1,0.5-1.8c0-0.7-0.2-1.3-0.5-1.7s-0.8-0.6-1.3-0.6
		c-0.5,0-1,0.2-1.3,0.6S59.6,7.9,59.6,8.7z"/>
</g>
<g class="st0">
	<path class="st1" d="M68.7,6.5c-0.2,0-0.3,0-0.5,0c-0.7,0-1.2,0.3-1.4,0.9v4.5h-1.1V5.5h1.1l0,0.7c0.4-0.6,0.9-0.8,1.5-0.8
		c0.2,0,0.4,0,0.5,0.1V6.5z"/>
</g>
<g class="st0">
	<path class="st1" d="M72.1,10.4l1.6-4.9h1.1l-2.3,6.3h-0.8l-2.3-6.3h1.1L72.1,10.4z"/>
	<path class="st1" d="M79.7,11.8c-0.1-0.1-0.1-0.3-0.2-0.7C79,11.7,78.4,12,77.7,12c-0.6,0-1.1-0.2-1.5-0.5s-0.6-0.8-0.6-1.3
		c0-0.7,0.3-1.2,0.8-1.5S77.5,8,78.4,8h1.1V7.5c0-0.4-0.1-0.7-0.3-0.9s-0.6-0.3-1-0.3c-0.4,0-0.7,0.1-1,0.3S76.8,7,76.8,7.3h-1.1
		c0-0.3,0.1-0.6,0.3-0.9s0.5-0.5,0.9-0.7s0.8-0.3,1.3-0.3c0.7,0,1.3,0.2,1.7,0.5s0.6,0.9,0.6,1.5v2.9c0,0.6,0.1,1,0.2,1.4v0.1H79.7z
		 M77.9,11c0.3,0,0.7-0.1,1-0.3s0.5-0.4,0.7-0.7V8.8h-0.8c-1.3,0-2,0.4-2,1.2c0,0.3,0.1,0.6,0.3,0.8S77.5,11,77.9,11z"/>
	<path class="st1" d="M83.7,4v1.5h1.2v0.8h-1.2v3.9c0,0.3,0.1,0.4,0.2,0.6s0.3,0.2,0.5,0.2c0.1,0,0.3,0,0.5-0.1v0.9
		c-0.3,0.1-0.6,0.1-0.8,0.1c-0.5,0-0.8-0.1-1.1-0.4s-0.4-0.7-0.4-1.2V6.3h-1.2V5.5h1.2V4H83.7z"/>
	<path class="st1" d="M87.3,6.3c0.5-0.6,1.1-0.9,1.9-0.9c1.3,0,2,0.8,2,2.3v4.2h-1.1V7.6c0-0.5-0.1-0.8-0.3-1s-0.5-0.3-1-0.3
		c-0.4,0-0.7,0.1-0.9,0.3S87.4,7,87.3,7.3v4.5h-1.1v-9h1.1V6.3z"/>
</g>
</svg>
