<?xml version="1.0" encoding="utf-8"?>
<!-- Generator: Adobe Illustrator 14.0.0, SVG Export Plug-In . SVG Version: 6.00 Build 43363)  -->
<!DOCTYPE svg PUBLIC "-//W3C//DTD SVG 1.1//EN" "http://www.w3.org/Graphics/SVG/1.1/DTD/svg11.dtd">
<svg version="1.1" id="Layer_1" xmlns="http://www.w3.org/2000/svg" xmlns:xlink="http://www.w3.org/1999/xlink" x="0px" y="0px"
	 width="121.279px" height="30px" viewBox="0 0 121.279 30" enable-background="new 0 0 121.279 30" xml:space="preserve">
<g>
	<g>
		<path fill="#808184" d="M1.49,17.462h4.834c0.536,0,1.029,0.063,1.479,0.188c0.45,0.127,0.838,0.312,1.167,0.558
			c0.328,0.245,0.584,0.55,0.764,0.917c0.182,0.365,0.272,0.787,0.272,1.262c0,0.396-0.09,0.768-0.267,1.117
			c-0.18,0.35-0.432,0.655-0.757,0.916c-0.326,0.262-0.716,0.47-1.171,0.622c-0.455,0.151-0.961,0.229-1.518,0.229H4.171v3.781
			h1.199v1.226H1.49v-1.226h1.136v-8.355H1.49V17.462z M4.171,18.696V22.1h2.153c0.3,0,0.574-0.037,0.824-0.11
			c0.25-0.074,0.465-0.182,0.647-0.325c0.181-0.143,0.323-0.32,0.425-0.534c0.103-0.215,0.154-0.462,0.154-0.743
			c0-0.532-0.179-0.947-0.537-1.244c-0.357-0.298-0.927-0.446-1.711-0.446H4.171z"/>
		<path fill="#808184" d="M12.746,17.462h3.872v1.234h-1.222v5.036c0,0.605,0.074,1.119,0.225,1.546
			c0.15,0.425,0.357,0.772,0.624,1.041c0.265,0.269,0.581,0.465,0.946,0.589c0.366,0.124,0.766,0.186,1.203,0.186
			c0.452,0,0.867-0.055,1.246-0.164s0.704-0.294,0.974-0.553c0.271-0.261,0.481-0.605,0.631-1.034
			c0.149-0.431,0.225-0.968,0.225-1.61v-5.036h-1.293v-1.234h3.872v1.234h-1.064v4.881c0,0.779-0.12,1.471-0.359,2.076
			c-0.239,0.603-0.566,1.109-0.981,1.52c-0.416,0.408-0.905,0.719-1.467,0.931c-0.562,0.211-1.167,0.317-1.813,0.317
			c-0.63,0-1.221-0.105-1.771-0.314c-0.548-0.21-1.027-0.517-1.434-0.921c-0.408-0.402-0.729-0.896-0.962-1.479
			c-0.234-0.582-0.351-1.25-0.351-2.001v-5.009h-1.097V17.462z"/>
		<path fill="#808184" d="M27.527,27.052h1.136v-8.355h-1.136v-1.249l5.378,0.015c0.482,0,0.938,0.082,1.363,0.246
			s0.797,0.388,1.112,0.671c0.315,0.282,0.564,0.616,0.745,1.003c0.182,0.384,0.272,0.798,0.272,1.241
			c0,0.461-0.142,0.882-0.425,1.262c-0.284,0.381-0.688,0.685-1.214,0.913c0.258,0.124,0.491,0.268,0.702,0.433
			c0.211,0.164,0.389,0.344,0.536,0.539c0.148,0.194,0.262,0.401,0.343,0.62c0.082,0.218,0.123,0.442,0.123,0.671
			c0,0.451-0.09,0.872-0.272,1.263c-0.181,0.39-0.43,0.73-0.745,1.021c-0.315,0.29-0.685,0.518-1.108,0.685s-0.876,0.249-1.36,0.249
			h-5.449V27.052z M30.208,18.696v3.531h2.713c0.252,0,0.488-0.045,0.706-0.135c0.218-0.091,0.408-0.211,0.567-0.365
			c0.16-0.151,0.288-0.328,0.383-0.527c0.094-0.2,0.142-0.407,0.142-0.62c0-0.233-0.048-0.462-0.142-0.688
			c-0.095-0.227-0.224-0.427-0.387-0.603c-0.163-0.177-0.354-0.319-0.571-0.429c-0.218-0.109-0.451-0.164-0.698-0.164H30.208z
			 M30.208,23.469v3.583h2.784c0.252,0,0.486-0.059,0.701-0.172c0.217-0.114,0.405-0.264,0.569-0.446
			c0.163-0.183,0.291-0.391,0.383-0.624c0.091-0.233,0.138-0.472,0.138-0.714c0-0.209-0.047-0.41-0.143-0.605
			c-0.094-0.195-0.222-0.37-0.382-0.521c-0.16-0.152-0.351-0.274-0.568-0.364c-0.218-0.089-0.451-0.136-0.698-0.136H30.208z"/>
		<path fill="#808184" d="M40.045,17.462h3.879v1.234h-1.199v8.355h4.125c0.084,0,0.167-0.019,0.252-0.055
			c0.083-0.035,0.16-0.083,0.229-0.14c0.068-0.057,0.123-0.122,0.165-0.195c0.042-0.074,0.063-0.148,0.063-0.225v-1.362h1.499v3.202
			h-9.014v-1.226h1.136v-8.355h-1.136V17.462z"/>
		<path fill="#808184" d="M52.122,17.462h3.816v1.234h-1.135v8.355h1.135v1.226h-3.816v-1.226h1.135v-8.355h-1.135V17.462z"/>
		<path fill="#808184" d="M65.925,19.46c-0.168-0.21-0.354-0.371-0.556-0.482s-0.425-0.196-0.667-0.256
			c-0.241-0.061-0.483-0.089-0.726-0.089c-0.399,0-0.748,0.041-1.049,0.123c-0.3,0.084-0.548,0.197-0.745,0.341
			c-0.197,0.142-0.346,0.309-0.444,0.498c-0.1,0.19-0.15,0.391-0.15,0.6c0,0.313,0.061,0.566,0.186,0.76
			c0.123,0.193,0.279,0.348,0.47,0.464c0.189,0.117,0.396,0.208,0.626,0.275s0.448,0.133,0.659,0.199l1.593,0.472
			c0.477,0.138,0.899,0.294,1.265,0.471c0.365,0.175,0.671,0.384,0.918,0.625c0.248,0.239,0.437,0.516,0.565,0.83
			c0.128,0.313,0.192,0.678,0.192,1.091c0,0.447-0.102,0.861-0.304,1.242c-0.203,0.381-0.485,0.711-0.848,0.991
			c-0.363,0.28-0.795,0.501-1.297,0.66s-1.052,0.239-1.652,0.239c-0.615,0-1.141-0.063-1.576-0.189
			c-0.437-0.125-0.804-0.295-1.101-0.507c-0.297-0.211-0.535-0.452-0.713-0.724c-0.179-0.271-0.319-0.55-0.419-0.834h-0.599v-1.229
			h1.988c0,0.527,0.062,0.901,0.186,1.12c0.123,0.22,0.295,0.4,0.517,0.546c0.22,0.145,0.482,0.254,0.788,0.328
			c0.303,0.074,0.641,0.11,1.01,0.11c0.356,0,0.679-0.037,0.966-0.113c0.286-0.076,0.529-0.187,0.732-0.333
			c0.203-0.145,0.357-0.319,0.466-0.527c0.107-0.206,0.16-0.44,0.16-0.702c0-0.291-0.065-0.536-0.2-0.738
			c-0.134-0.203-0.306-0.375-0.517-0.518s-0.439-0.26-0.69-0.35c-0.249-0.089-0.489-0.169-0.721-0.235l-1.728-0.442
			c-0.377-0.104-0.724-0.237-1.036-0.399s-0.582-0.358-0.805-0.593c-0.222-0.232-0.396-0.505-0.517-0.816
			c-0.12-0.312-0.181-0.672-0.181-1.081c0-0.413,0.088-0.801,0.268-1.162c0.179-0.361,0.442-0.678,0.789-0.949
			c0.348-0.271,0.771-0.483,1.272-0.638c0.503-0.155,1.077-0.232,1.724-0.232c0.426,0,0.818,0.045,1.18,0.135
			c0.358,0.091,0.686,0.218,0.977,0.382c0.292,0.163,0.55,0.361,0.772,0.592c0.225,0.23,0.411,0.484,0.563,0.76h0.592v1.229h-1.932
			C66.177,19.983,66.093,19.669,65.925,19.46z"/>
		<path fill="#808184" d="M79.846,17.462h3.88v1.228H82.59v8.362h1.137v1.226h-3.88v-1.226h1.198v-3.889h-6.916v3.889h1.199v1.226
			h-3.879v-1.226h1.135v-8.362h-1.135v-1.228h3.879v1.228h-1.199v3.274h6.916v-3.274h-1.198V17.462z"/>
		<path fill="#808184" d="M87.837,17.462h3.817v1.234h-1.135v8.355h1.135v1.226h-3.817v-1.226h1.137v-8.355h-1.137V17.462z"/>
		<path fill="#808184" d="M103.163,17.462h3.881v1.234h-1.019v9.581h-2.019l-5.559-8.967v7.741h1.229v1.226h-3.879v-1.226h1.104
			v-8.355h-1.136v-1.249h3.217l5.457,8.883l0.063-0.342v-7.292h-1.341V17.462z"/>
		<path fill="#808184" d="M119.812,28.32v-2.169c-0.199,0.376-0.449,0.704-0.749,0.981c-0.299,0.278-0.633,0.508-1.001,0.688
			c-0.369,0.181-0.762,0.316-1.18,0.407c-0.418,0.09-0.843,0.135-1.272,0.135c-0.778,0-1.497-0.118-2.152-0.354
			c-0.657-0.234-1.253-0.609-1.787-1.124c-0.532-0.513-0.94-1.121-1.222-1.825c-0.282-0.704-0.422-1.439-0.422-2.204
			c0-0.771,0.14-1.499,0.422-2.184c0.281-0.685,0.675-1.282,1.183-1.79c0.508-0.51,1.113-0.909,1.813-1.199
			c0.702-0.29,1.464-0.436,2.283-0.436c0.757,0,1.407,0.097,1.951,0.292c0.543,0.195,1.009,0.432,1.396,0.711
			c0.387,0.277,0.695,0.542,0.927,0.795h0.765v1.27h-1.695c-0.353-0.542-0.817-0.97-1.399-1.283
			c-0.581-0.315-1.231-0.467-1.952-0.457c-0.604,0-1.159,0.116-1.663,0.35c-0.505,0.233-0.938,0.546-1.298,0.942
			c-0.359,0.394-0.64,0.848-0.839,1.362c-0.2,0.513-0.3,1.055-0.3,1.627c0,0.632,0.109,1.219,0.331,1.762
			c0.221,0.542,0.502,0.981,0.844,1.319s0.764,0.618,1.266,0.839c0.501,0.221,1.058,0.331,1.668,0.331
			c1.01,0,1.837-0.223,2.483-0.667s1.099-1.138,1.356-2.079h-3.344v-1.227h5.055v5.186H119.812z"/>
	</g>
	<g>
		<path fill="#808184" d="M1.55,0.255h6.86c0.818,0,1.602,0.081,2.353,0.244c0.751,0.163,1.45,0.393,2.099,0.688
			c0.648,0.296,1.237,0.652,1.768,1.066c0.53,0.413,0.984,0.874,1.361,1.382c0.378,0.507,0.668,1.055,0.873,1.64
			c0.205,0.586,0.307,1.197,0.307,1.832c0,0.634-0.102,1.245-0.307,1.831c-0.204,0.587-0.495,1.135-0.873,1.646
			c-0.377,0.51-0.831,0.975-1.361,1.396c-0.531,0.42-1.12,0.778-1.768,1.079c-0.649,0.299-1.348,0.53-2.099,0.694
			c-0.75,0.163-1.535,0.244-2.353,0.244H1.55v-2.483h1.427V2.747H1.55V0.255z M6.89,2.747v8.765h1.497
			c0.637,0,1.238-0.114,1.804-0.344c0.566-0.229,1.058-0.542,1.475-0.938c0.416-0.396,0.746-0.861,0.989-1.396
			c0.244-0.535,0.366-1.11,0.366-1.727c0-0.61-0.122-1.182-0.366-1.713c-0.243-0.532-0.573-0.995-0.989-1.387
			c-0.417-0.393-0.908-0.701-1.475-0.924C9.625,2.858,9.024,2.747,8.387,2.747H6.89z"/>
		<path fill="#808184" d="M27.307,14.24c-0.809,0-1.583-0.085-2.322-0.253c-0.739-0.169-1.429-0.408-2.069-0.717
			c-0.64-0.308-1.222-0.678-1.745-1.11c-0.522-0.432-0.967-0.912-1.337-1.441c-0.37-0.528-0.656-1.096-0.861-1.699
			c-0.204-0.604-0.306-1.235-0.306-1.895c0-0.658,0.102-1.292,0.306-1.899c0.205-0.607,0.491-1.175,0.861-1.705
			c0.37-0.528,0.815-1.008,1.337-1.441c0.523-0.432,1.105-0.802,1.745-1.11c0.641-0.309,1.331-0.547,2.069-0.715
			C25.724,0.085,26.498,0,27.307,0s1.586,0.085,2.328,0.255c0.743,0.168,1.435,0.407,2.075,0.715
			c0.641,0.308,1.222,0.679,1.745,1.11c0.522,0.433,0.97,0.913,1.344,1.441c0.373,0.529,0.662,1.098,0.867,1.705
			c0.204,0.607,0.306,1.241,0.306,1.899c0,0.652-0.102,1.283-0.306,1.89c-0.205,0.607-0.494,1.175-0.867,1.704
			c-0.374,0.529-0.822,1.009-1.344,1.441c-0.523,0.433-1.104,0.802-1.745,1.11c-0.641,0.309-1.332,0.548-2.075,0.717
			C28.894,14.155,28.116,14.24,27.307,14.24z M27.307,11.394c0.684,0,1.311-0.113,1.881-0.34c0.569-0.226,1.06-0.535,1.467-0.925
			c0.409-0.389,0.725-0.842,0.949-1.359c0.224-0.517,0.335-1.064,0.335-1.645c0-0.585-0.113-1.14-0.341-1.659
			c-0.228-0.52-0.548-0.975-0.96-1.364c-0.413-0.39-0.902-0.698-1.468-0.924c-0.566-0.228-1.187-0.34-1.863-0.34
			c-0.676,0-1.296,0.112-1.862,0.34c-0.565,0.227-1.053,0.535-1.463,0.924c-0.408,0.39-0.728,0.845-0.96,1.364
			c-0.232,0.519-0.348,1.073-0.348,1.659c0,0.581,0.116,1.128,0.348,1.645c0.232,0.518,0.552,0.97,0.96,1.359
			c0.41,0.39,0.897,0.699,1.463,0.925C26.011,11.281,26.632,11.394,27.307,11.394z"/>
		<path fill="#808184" d="M37.47,0.255h7.167v2.492h-1.639v5.701c0,0.52,0.077,0.961,0.23,1.324
			c0.153,0.362,0.368,0.658,0.642,0.888c0.276,0.23,0.601,0.398,0.978,0.503c0.377,0.106,0.792,0.158,1.239,0.158
			c0.463,0,0.886-0.045,1.267-0.135c0.381-0.09,0.708-0.247,0.979-0.467c0.271-0.22,0.479-0.515,0.625-0.883
			c0.145-0.37,0.218-0.831,0.218-1.387V2.747h-1.898V0.255h7.167v2.492h-1.426v5.348c0,0.967-0.18,1.826-0.542,2.578
			c-0.361,0.752-0.859,1.388-1.49,1.908c-0.633,0.52-1.376,0.915-2.229,1.187c-0.853,0.272-1.767,0.408-2.74,0.408
			c-0.967,0-1.871-0.134-2.712-0.403c-0.84-0.27-1.573-0.658-2.198-1.169c-0.624-0.511-1.118-1.131-1.479-1.863
			c-0.362-0.732-0.542-1.56-0.542-2.483V2.747H37.47V0.255z"/>
		<path fill="#808184" d="M56.603,11.512h1.827V2.747h-1.827V0.235l8.711,0.02c0.811,0,1.551,0.109,2.223,0.33
			c0.672,0.221,1.252,0.519,1.738,0.898c0.488,0.378,0.867,0.818,1.138,1.323c0.271,0.505,0.408,1.041,0.408,1.61
			c0,0.664-0.151,1.214-0.454,1.648C70.063,6.5,69.634,6.85,69.075,7.117c0.59,0.289,1.056,0.647,1.397,1.073
			c0.343,0.427,0.513,0.945,0.513,1.555c0,0.623-0.14,1.195-0.419,1.713c-0.278,0.521-0.66,0.969-1.142,1.347
			c-0.485,0.376-1.058,0.67-1.716,0.878c-0.661,0.208-1.373,0.312-2.135,0.312h-8.971V11.512z M62.344,2.747v3.082h2.805
			c0.221,0,0.43-0.042,0.626-0.127c0.196-0.084,0.366-0.198,0.512-0.34s0.263-0.302,0.349-0.479c0.086-0.179,0.13-0.364,0.13-0.558
			c0-0.188-0.044-0.375-0.13-0.563c-0.086-0.187-0.203-0.356-0.349-0.507c-0.146-0.151-0.315-0.274-0.512-0.368
			s-0.405-0.14-0.626-0.14H62.344z M62.344,8.312v3.199h2.97c0.229,0,0.443-0.045,0.644-0.136s0.372-0.209,0.519-0.358
			c0.145-0.148,0.262-0.32,0.347-0.517c0.087-0.196,0.13-0.4,0.13-0.612c0-0.223-0.043-0.431-0.13-0.621
			c-0.085-0.19-0.204-0.356-0.352-0.499c-0.15-0.142-0.325-0.253-0.526-0.334c-0.199-0.083-0.411-0.123-0.631-0.123H62.344z"/>
		<path fill="#808184" d="M72.942,0.255h7.651v2.492h-1.886v8.765h3.89c0.103,0,0.202-0.022,0.301-0.068
			c0.098-0.045,0.184-0.104,0.26-0.176c0.074-0.072,0.135-0.151,0.183-0.236c0.046-0.084,0.07-0.166,0.07-0.245v-1.84h3.819v5.048
			H72.942v-2.483h1.851V2.747h-1.851V0.255z"/>
		<path fill="#808184" d="M88.809,0.255h14.217v4.686h-3.843V2.992h-4.585v2.71h3.547v2.629h-3.547v3.181h4.585V9.074h3.843v4.921
			H88.809v-2.483h1.874v-8.52h-1.874V0.255z"/>
	</g>
	<path fill="#808184" d="M121.017,0.255h-7.873v2.561h1.91v8.482c0,0-0.001,0.942-0.334,0.967c-0.351,0.024-0.514,0.012-0.514-0.955
		c0-0.966-0.04-2.685-0.04-2.685h-3.444c0,0,0,2.914,0,3.422c0,0.509,1.157,1.922,4.104,1.922c2.768,0,4.085-0.916,4.235-2.303
		h0.043v-8.85h1.913V0.255z"/>
</g>
</svg>
