<?xml version="1.0" encoding="utf-8"?>
<!-- Generator: Adobe Illustrator 23.0.3, SVG Export Plug-In . SVG Version: 6.00 Build 0)  -->
<svg version="1.1" id="Layer_1" xmlns="http://www.w3.org/2000/svg" xmlns:xlink="http://www.w3.org/1999/xlink" x="0px" y="0px"
	 viewBox="0 0 65.46 37.93" style="enable-background:new 0 0 65.46 37.93;" xml:space="preserve">
<style type="text/css">
	.st0{fill:#16AFB7;}
</style>
<g>
	<path class="st0" d="M0.59,4.03h7.26l8.11,17.17l8.16-17.17h7.15v31.79h-7.74V21.68L16.6,36.89h-1.27L8.38,21.57v14.26H0.59V4.03z
		 M6.42,34.35V15h0.9l8.64,18.65L24.76,15h0.74v19.34h3.82V5.52h-3.87l-8.74,18.6h-1.48L6.53,5.52H2.55v28.83H6.42z M3.35,6.1h2.81
		l0.11,0.27H3.51L3.35,6.1z M3.88,7.16h2.76l0.11,0.27h-2.7L3.88,7.16z M4.41,8.22h2.76l0.11,0.27h-2.7L4.41,8.22z M4.94,9.28h2.7
		l0.11,0.27H5.1L4.94,9.28z M5.47,10.34h2.7l0.11,0.27H5.63L5.47,10.34z M6.05,11.4h2.6l0.11,0.27H6.21L6.05,11.4z M6.58,12.46h2.54
		l0.11,0.27H6.74L6.58,12.46z M7.11,13.52H9.6l0.11,0.27H7.27L7.11,13.52z M7.64,14.58h2.44l0.16,0.27H7.8L7.64,14.58z M8.17,15.64
		h2.44l0.11,0.27H8.33L8.17,15.64z M8.7,16.7h2.38l0.16,0.27H8.86L8.7,16.7z M9.18,17.76h2.44l0.11,0.27H9.34L9.18,17.76z
		 M9.65,18.82h2.44l0.11,0.27H9.81L9.65,18.82z M10.13,19.88h2.44l0.11,0.27h-2.38L10.13,19.88z M10.66,20.94h2.44l0.11,0.27h-2.38
		L10.66,20.94z M11.14,22h2.44l0.11,0.27H11.3L11.14,22z M11.61,23.06h2.49l0.11,0.27h-2.44L11.61,23.06z M12.14,24.12h2.38
		l0.16,0.27H12.3L12.14,24.12z M12.62,25.18h2.44l0.16,0.27h-2.44L12.62,25.18z M13.1,26.24h2.49l0.16,0.27h-2.49L13.1,26.24z
		 M16.12,27.3l0.16,0.27h-2.54l-0.16-0.27H16.12z M16.65,28.36l0.16,0.27h-2.6l-0.16-0.27H16.65z M17.12,29.42l0.16,0.16l-0.11,0.16
		h-2.44l-0.16-0.32H17.12z M16.86,30.48l-0.16,0.27h-1.48l-0.16-0.27H16.86z M16.38,31.54l-0.16,0.27h-0.53l-0.16-0.27H16.38z
		 M16.17,32.49l-0.21,0.27l-0.21-0.27H16.17z M26.03,6.1h2.76v0.27h-2.76V6.1z M26.03,7.16h2.76v0.27h-2.76V7.16z M26.03,8.22h2.76
		v0.27h-2.76V8.22z M26.03,9.28h2.76v0.27h-2.76V9.28z M26.03,10.34h2.76v0.27h-2.76V10.34z M26.03,11.4h2.76v0.27h-2.76V11.4z
		 M26.03,12.46h2.76v0.27h-2.76V12.46z M26.03,13.52h2.76v0.27h-2.76V13.52z M26.03,14.58h2.76v0.27h-2.76V14.58z M26.03,15.64h2.76
		v0.27h-2.76V15.64z M26.03,16.7h2.76v0.27h-2.76V16.7z M26.03,17.76h2.76v0.27h-2.76V17.76z M26.03,18.82h2.76v0.27h-2.76V18.82z
		 M26.03,19.88h2.76v0.27h-2.76V19.88z M26.03,20.94h2.76v0.27h-2.76V20.94z M26.03,22h2.76v0.27h-2.76V22z M26.03,23.06h2.76v0.27
		h-2.76V23.06z M26.03,24.12h2.76v0.27h-2.76V24.12z M26.03,25.18h2.76v0.27h-2.76V25.18z M26.03,26.24h2.76v0.27h-2.76V26.24z
		 M26.03,27.3h2.76v0.27h-2.76V27.3z M26.03,28.36h2.76v0.27h-2.76V28.36z M26.03,29.42h2.76v0.27h-2.76V29.42z M26.03,30.48h2.76
		v0.27h-2.76V30.48z M26.03,31.54h2.76v0.27h-2.76V31.54z M26.03,32.6h2.76v0.27h-2.76V32.6z M26.03,33.66h2.76v0.21h-2.76V33.66z"
		/>
	<path class="st0" d="M36.37,4.03h7.79v12.51h12.45V4.03h7.74v31.79h-7.74V23.27H44.16v12.56h-7.79V4.03z M42.19,34.35V21.79h16.37
		v12.56h3.82V5.52h-3.82v12.51H42.19V5.52h-3.87v28.83H42.19z M38.86,6h2.81v0.26h-2.81V6z M38.86,7.06h2.81v0.26h-2.81V7.06z
		 M38.86,8.12h2.81v0.26h-2.81V8.12z M38.86,9.18h2.81v0.26h-2.81V9.18z M38.86,10.24h2.81v0.26h-2.81V10.24z M38.86,11.3h2.81v0.26
		h-2.81V11.3z M38.86,12.35h2.81v0.26h-2.81V12.35z M38.86,13.41h2.81v0.26h-2.81V13.41z M38.86,14.47h2.81v0.26h-2.81V14.47z
		 M38.86,15.53h2.81v0.26h-2.81V15.53z M38.86,16.59h2.81v0.26h-2.81V16.59z M38.86,17.65h2.81v0.26h-2.81V17.65z M38.86,18.71h23
		v0.26h-23V18.71z M38.86,19.77h23v0.27h-23V19.77z M38.86,20.83h23v0.26h-23V20.83z M59.05,6h2.81v0.26h-2.81V6z M59.05,7.06h2.81
		v0.26h-2.81V7.06z M59.05,8.12h2.81v0.26h-2.81V8.12z M59.05,9.18h2.81v0.26h-2.81V9.18z M59.05,10.24h2.81v0.26h-2.81V10.24z
		 M59.05,11.3h2.81v0.26h-2.81V11.3z M59.05,12.35h2.81v0.26h-2.81V12.35z M59.05,13.41h2.81v0.26h-2.81V13.41z M59.05,14.47h2.81
		v0.26h-2.81V14.47z M59.05,15.53h2.81v0.26h-2.81V15.53z M59.05,16.59h2.81v0.26h-2.81V16.59z M59.05,17.65h2.81v0.26h-2.81V17.65z
		"/>
</g>
</svg>
